<mxfile host="65bd71144e">
    <diagram id="osaHDVd0ANBhrn9PKgiV" name="Page-1">
        <mxGraphModel dx="1016" dy="584" grid="1" gridSize="10" guides="1" tooltips="1" connect="1" arrows="1" fold="1" page="1" pageScale="1" pageWidth="827" pageHeight="1169" math="0" shadow="0">
            <root>
                <mxCell id="0"/>
                <mxCell id="1" parent="0"/>
                <mxCell id="4" value="" style="edgeStyle=none;html=1;endSize=9;" parent="1" source="2" target="3" edge="1">
                    <mxGeometry relative="1" as="geometry"/>
                </mxCell>
                <mxCell id="2" value="Лексический анализ" style="rounded=0;whiteSpace=wrap;html=1;fontSize=14;fillColor=default;fontColor=default;strokeColor=default;align=center;verticalAlign=middle;fontFamily=Helvetica;" parent="1" vertex="1">
                    <mxGeometry x="130" y="150" width="160" height="60" as="geometry"/>
                </mxCell>
                <mxCell id="6" value="" style="edgeStyle=none;html=1;" parent="1" source="3" target="5" edge="1">
                    <mxGeometry relative="1" as="geometry"/>
                </mxCell>
                <mxCell id="10" value="" style="edgeStyle=none;html=1;endSize=9;" parent="1" source="3" target="9" edge="1">
                    <mxGeometry relative="1" as="geometry"/>
                </mxCell>
                <mxCell id="3" value="Синтаксический анализ" style="whiteSpace=wrap;html=1;rounded=0;fontSize=14;fillColor=default;fontColor=default;strokeColor=default;align=center;verticalAlign=middle;fontFamily=Helvetica;" parent="1" vertex="1">
                    <mxGeometry x="330" y="150" width="160" height="60" as="geometry"/>
                </mxCell>
                <mxCell id="5" value="Семантический анали анализ и синтез объектной программы" style="whiteSpace=wrap;html=1;rounded=0;" parent="1" vertex="1">
                    <mxGeometry x="550" y="150" width="120" height="60" as="geometry"/>
                </mxCell>
                <mxCell id="7" value="Справочник образов объектов входной и объектной программы" style="whiteSpace=wrap;html=1;rounded=0;fontSize=14;" parent="1" vertex="1">
                    <mxGeometry x="330" y="40" width="160" height="60" as="geometry"/>
                </mxCell>
                <mxCell id="8" value="Ошибки" style="whiteSpace=wrap;html=1;rounded=0;fontSize=14;" parent="1" vertex="1">
                    <mxGeometry x="330" y="260" width="160" height="60" as="geometry"/>
                </mxCell>
                <mxCell id="9" value="Семантический анализ и синтез объектной программы" style="whiteSpace=wrap;html=1;rounded=0;fontSize=14;strokeColor=default;align=center;verticalAlign=middle;fontFamily=Helvetica;fontColor=default;fillColor=default;" parent="1" vertex="1">
                    <mxGeometry x="530" y="150" width="160" height="60" as="geometry"/>
                </mxCell>
                <mxCell id="11" value="" style="edgeStyle=none;html=1;endSize=9;entryX=0.5;entryY=1;entryDx=0;entryDy=0;exitX=0.5;exitY=0;exitDx=0;exitDy=0;startArrow=classic;startFill=1;startSize=9;" parent="1" source="3" target="7" edge="1">
                    <mxGeometry relative="1" as="geometry">
                        <mxPoint x="280" y="190" as="sourcePoint"/>
                        <mxPoint x="360" y="190" as="targetPoint"/>
                    </mxGeometry>
                </mxCell>
                <mxCell id="12" value="" style="edgeStyle=none;html=1;endSize=9;exitX=0.5;exitY=0;exitDx=0;exitDy=0;startArrow=classic;startFill=1;startSize=9;entryX=0.5;entryY=1;entryDx=0;entryDy=0;" parent="1" source="8" target="3" edge="1">
                    <mxGeometry relative="1" as="geometry">
                        <mxPoint x="420" y="160" as="sourcePoint"/>
                        <mxPoint x="410" y="210" as="targetPoint"/>
                    </mxGeometry>
                </mxCell>
                <mxCell id="13" value="" style="edgeStyle=orthogonalEdgeStyle;html=1;endSize=9;exitX=0;exitY=0.5;exitDx=0;exitDy=0;startArrow=classic;startFill=1;startSize=9;entryX=0.5;entryY=1;entryDx=0;entryDy=0;" parent="1" source="8" target="2" edge="1">
                    <mxGeometry relative="1" as="geometry">
                        <mxPoint x="420" y="270" as="sourcePoint"/>
                        <mxPoint x="420" y="220" as="targetPoint"/>
                    </mxGeometry>
                </mxCell>
                <mxCell id="14" value="" style="edgeStyle=orthogonalEdgeStyle;html=1;endSize=9;exitX=1;exitY=0.5;exitDx=0;exitDy=0;startArrow=classic;startFill=1;startSize=9;entryX=0.5;entryY=1;entryDx=0;entryDy=0;" parent="1" source="8" target="9" edge="1">
                    <mxGeometry relative="1" as="geometry">
                        <mxPoint x="360" y="300" as="sourcePoint"/>
                        <mxPoint x="220" y="220" as="targetPoint"/>
                    </mxGeometry>
                </mxCell>
                <mxCell id="15" value="" style="edgeStyle=orthogonalEdgeStyle;html=1;endSize=9;exitX=0;exitY=0.5;exitDx=0;exitDy=0;startArrow=classic;startFill=1;startSize=9;entryX=0.5;entryY=0;entryDx=0;entryDy=0;" parent="1" source="7" target="2" edge="1">
                    <mxGeometry relative="1" as="geometry">
                        <mxPoint x="360" y="300" as="sourcePoint"/>
                        <mxPoint x="220" y="220" as="targetPoint"/>
                    </mxGeometry>
                </mxCell>
                <mxCell id="16" value="" style="edgeStyle=orthogonalEdgeStyle;html=1;endSize=9;exitX=1;exitY=0.5;exitDx=0;exitDy=0;startArrow=classic;startFill=1;startSize=9;entryX=0.5;entryY=0;entryDx=0;entryDy=0;" parent="1" source="7" target="9" edge="1">
                    <mxGeometry relative="1" as="geometry">
                        <mxPoint x="360" y="80" as="sourcePoint"/>
                        <mxPoint x="220" y="160" as="targetPoint"/>
                    </mxGeometry>
                </mxCell>
                <mxCell id="17" value="Входная&amp;nbsp;&lt;div&gt;программа&lt;/div&gt;" style="edgeStyle=none;html=1;endSize=9;entryX=0;entryY=0.5;entryDx=0;entryDy=0;fontSize=14;" parent="1" target="2" edge="1">
                    <mxGeometry relative="1" as="geometry">
                        <mxPoint x="30" y="180" as="sourcePoint"/>
                        <mxPoint x="330" y="190" as="targetPoint"/>
                    </mxGeometry>
                </mxCell>
                <mxCell id="18" value="&lt;font style=&quot;color: light-dark(rgb(0, 173, 235), rgb(237, 237, 237));&quot;&gt;Объектная&amp;nbsp;&lt;/font&gt;&lt;div&gt;&lt;font style=&quot;color: light-dark(rgb(0, 173, 235), rgb(237, 237, 237));&quot;&gt;программа&lt;/font&gt;&lt;/div&gt;" style="edgeStyle=none;html=1;endSize=9;fontSize=14;fontColor=light-dark(#00ADEB,#EDEDED);" parent="1" edge="1">
                    <mxGeometry relative="1" as="geometry">
                        <mxPoint x="690" y="180" as="sourcePoint"/>
                        <mxPoint x="790" y="180" as="targetPoint"/>
                    </mxGeometry>
                </mxCell>
            </root>
        </mxGraphModel>
    </diagram>
</mxfile>